<svg width="28" height="28" viewBox="0 0 28 28" fill="none" xmlns="http://www.w3.org/2000/svg">
<path d="M5.8203 7.33206L6.5703 24.4531C6.6289 25.918 7.5078 26.7149 8.9492 26.7149H19.0625C20.5039 26.7149 21.3828 25.918 21.4414 24.4531L22.1914 7.33206H23.539C24.0195 7.33206 24.4062 6.93361 24.4062 6.45316C24.4062 5.97266 24.0195 5.56251 23.539 5.56251H18.7227V3.88671C18.7227 2.28126 17.6562 1.28516 16.1446 1.28516H11.832C10.3203 1.28516 9.26565 2.28126 9.26565 3.88671V5.56251H4.47265C4.0039 5.56251 3.59375 5.97266 3.59375 6.45316C3.59375 6.93361 4.0039 7.33206 4.47265 7.33206H5.8203ZM10.8594 3.88671C10.8594 3.21876 11.3516 2.75001 12.0547 2.75001H15.9336C16.6485 2.75001 17.1406 3.21876 17.1406 3.88671V5.56251H10.8594V3.88671ZM17.8086 24.3242C17.3515 24.3242 17.0351 23.9258 17.0469 23.4453L17.5273 9.85156C17.5508 9.38281 17.8906 8.99611 18.3125 8.99611C18.7461 8.99611 19.0977 9.37111 19.086 9.85156L18.5586 23.4571C18.5469 23.961 18.2422 24.3242 17.8086 24.3242ZM10.2031 24.3242C9.76955 24.3242 9.46485 23.961 9.4531 23.4571L8.9258 9.85156C8.91405 9.35936 9.26565 8.99611 9.6992 8.99611C10.1211 8.99611 10.4727 9.38281 10.4844 9.85156L10.9649 23.4453C10.9766 23.9258 10.6602 24.3242 10.2031 24.3242ZM14.8086 23.4453C14.8086 23.9258 14.4336 24.3242 14.0117 24.3242C13.5898 24.3242 13.2149 23.9258 13.2149 23.4453V9.85156C13.2149 9.38281 13.5898 8.99611 14.0117 8.99611C14.4336 8.99611 14.8203 9.38281 14.8203 9.85156L14.8086 23.4453Z" fill="#1E1E1E" fill-opacity="0.6"/>
</svg>
